<?xml version="1.0" encoding="utf-8"?>
<!-- Generator: Adobe Illustrator 19.2.0, SVG Export Plug-In . SVG Version: 6.00 Build 0)  -->
<svg version="1.1" id="Ebene_1" xmlns="http://www.w3.org/2000/svg" xmlns:xlink="http://www.w3.org/1999/xlink" x="0px" y="0px"
	width="15px" height="555px"
	 viewBox="0 0 15 555" style="enable-background:new 0 0 15 555;" xml:space="preserve">
<style type="text/css">
	.st0{fill:#808080;}
	.st1{fill:#333333;}
	.st2{fill:#5994C4;}
	.st3{fill:#CCCCCC;}
</style>
<g transform="translate(0 90)">
	<path class="st0" d="M14,1.1v13H1v-13C1,1.1,14,1.1,14,1.1z M0,0.1v15h15v-15C15,0.1,0,0.1,0,0.1z"/>
</g>
<g transform="translate(0 0)">
	<path class="st1" d="M6.6,12L3,8.4l1.1-1.1l2.3,2.3l4.3-6L12,4.4L6.6,12z"/>
	<path class="st2" d="M14,1.1v13H1v-13C1,1.1,14,1.1,14,1.1z M0,0.1v15h15v-15C15,0.1,0,0.1,0,0.1z"/>
</g>
<g transform="translate(0 0)">
	<path class="st1" d="M6.6,57.2L3,53.6l1.1-1.1l2.3,2.3l4.3-6l1.3,0.9L6.6,57.2z"/>
	<path class="st0" d="M14,46.1v13H1v-13H14z M0,45.1v15h15v-15H0z"/>
</g>
<g transform="translate(0 135)">
	<path class="st1" d="M6,6.1l4.5,4l4.5-4C15,6.1,6,6.1,6,6.1z"/>
</g>
<g transform="translate(0 180)">
	<path class="st1" d="M11,7.5C11,9.4,9.4,11,7.5,11S4,9.4,4,7.5S5.6,4,7.5,4S11,5.6,11,7.5z"/>
	<path class="st2" d="M7.5,1C11.1,1,14,3.9,14,7.5S11.1,14,7.5,14S1,11.1,1,7.5S3.9,1,7.5,1 M7.5,0C3.4,0,0,3.4,0,7.5S3.4,15,7.5,15
		S15,11.6,15,7.5S11.6,0,7.5,0L7.5,0z"/>
</g>
<g transform="translate(0 180)">
	<path class="st1" d="M11,52.6c0,1.9-1.6,3.5-3.5,3.5S4,54.5,4,52.6s1.6-3.5,3.5-3.5S11,50.7,11,52.6z"/>
	<path class="st0" d="M7.5,46.1c3.6,0,6.5,2.9,6.5,6.5s-2.9,6.5-6.5,6.5S1,56.2,1,52.6S3.9,46.1,7.5,46.1 M7.5,45.1
		c-4.1,0-7.5,3.4-7.5,7.5s3.4,7.5,7.5,7.5s7.5-3.4,7.5-7.5S11.6,45.1,7.5,45.1L7.5,45.1z"/>
</g>
<g transform="translate(0 270)">
	<path class="st0" d="M7.5,1.1C11.1,1.1,14,4,14,7.6s-2.9,6.5-6.5,6.5S1,11.2,1,7.6S3.9,1.1,7.5,1.1 M7.5,0.1C3.4,0.1,0,3.5,0,7.6
		s3.4,7.5,7.5,7.5S15,11.8,15,7.6S11.6,0.1,7.5,0.1L7.5,0.1z"/>
</g>
<g transform="translate(0 315)">
	<path class="st2" d="M7.5,1C11.1,1,14,3.9,14,7.5S11.1,14,7.5,14S1,11.1,1,7.5S3.9,1,7.5,1 M7.5,0C3.4,0,0,3.4,0,7.5S3.4,15,7.5,15
		S15,11.6,15,7.5S11.6,0,7.5,0L7.5,0z"/>
</g>
<g transform="translate(0 360)">
	<path class="st2" d="M14,1v13H1V1H14z M0,0v15h15V0H0z"/>
</g>
<g transform="translate(0 45)">
	<path class="st3" d="M6.6,507.2L3,503.7l1.1-1.1l2.3,2.3l4.3-6l1.3,0.9L6.6,507.2z"/>
	<path class="st3" d="M14,496.2v13H1v-13H14z M0,495.2v15h15v-15H0z"/>
</g>
<g transform="translate(0 315)">
	<path class="st3" d="M7.5,91c3.6,0,6.5,2.9,6.5,6.5s-2.9,6.5-6.5,6.5S1,101.1,1,97.5S3.9,91,7.5,91 M7.5,90C3.4,90,0,93.4,0,97.5
		s3.4,7.5,7.5,7.5s7.5-3.4,7.5-7.5S11.6,90,7.5,90L7.5,90z"/>
</g>
<g transform="translate(0 360)">
	<path class="st3" d="M14,91v13H1V91H14z M0,90v15h15V90H0z"/>
</g>
<g transform="translate(0 315)">
	<path class="st3" d="M7.5,181c3.6,0,6.5,2.9,6.5,6.5s-2.9,6.5-6.5,6.5S1,191.1,1,187.5S3.9,181,7.5,181 M7.5,180
		c-4.1,0-7.5,3.4-7.5,7.5s3.4,7.5,7.5,7.5s7.5-3.4,7.5-7.5S11.6,180,7.5,180L7.5,180z"/>
</g>
<path class="st3" d="M11,502.7c0,1.9-1.6,3.5-3.5,3.5S4,504.6,4,502.7s1.6-3.5,3.5-3.5S11,500.7,11,502.7z"/>
</svg>
